<svg width="979" height="291" viewBox="0 0 979 291" fill="none" xmlns="http://www.w3.org/2000/svg">
<g clip-path="url(#clip0)">
<path fill-rule="evenodd" clip-rule="evenodd" d="M0 286.4V218.4H78H93.6H109.2C129.733 218.4 145.467 211.333 156.4 197.2C167.6 183.067 173.2 165.333 173.2 144C173.2 121.867 167.467 104.133 156 90.8C144.8 77.2 129.2 70.4 109.2 70.4L93.6 70.4L78 70.4L0 70.4V2.39999H109.2C140.667 2.39999 166.933 8.79999 188 21.6C209.333 34.1333 225.333 51.2 236 72.8C246.933 94.1333 252.4 117.867 252.4 144C252.4 172.8 246.4 197.867 234.4 219.2C222.667 240.533 206 257.067 184.4 268.8C163.067 280.533 138 286.4 109.2 286.4H0ZM340.209 2.39999H427.409L517.809 286.4H438.609L421.595 231.4H421.6L408.698 178.8H409.009L383.809 78.8L357.409 178.8H357.6V178.9L345.6 230.9H345.779L329.009 286.4H249.409L340.209 2.39999ZM570.1 2.39999L620.9 118.4L672.9 2.39999H757.7L659.7 192.4V286.4H582.1V191.6L485.7 2.39999H570.1ZM937.234 95.2L930.434 91.2C925.901 88.5333 919.901 85.6 912.434 82.4C904.968 78.9333 896.834 75.8667 888.034 73.2C879.234 70.5333 870.568 69.2 862.034 69.2C855.368 69.2 849.901 70.2667 845.634 72.4C841.368 74.5333 839.234 78.1333 839.234 83.2C839.234 90.6667 843.901 96 853.234 99.2C862.834 102.133 875.768 106.267 892.034 111.6C909.634 116.933 924.834 123.067 937.634 130C950.434 136.933 960.301 145.867 967.234 156.8C974.168 167.467 977.634 181.733 977.634 199.6C977.634 216.667 974.568 231.067 968.434 242.8C962.301 254.267 954.034 263.467 943.634 270.4C933.234 277.333 921.634 282.4 908.834 285.6C896.034 288.533 882.968 290 869.634 290C856.034 290 841.768 288.667 826.834 286C812.168 283.067 797.901 279.2 784.034 274.4C770.168 269.333 757.501 263.467 746.034 256.8L779.634 188.4L787.634 193.2C792.968 196.4 800.034 200 808.834 204C817.634 208 827.368 211.6 838.034 214.8C848.968 218 859.901 219.6 870.834 219.6C879.368 219.6 885.234 218.533 888.434 216.4C891.901 214 893.634 210.933 893.634 207.2C893.634 201.6 890.701 197.333 884.834 194.4C878.968 191.2 871.234 188.267 861.634 185.6C852.301 182.667 841.901 179.333 830.434 175.6C805.368 167.067 787.101 156.933 775.634 145.2C764.168 133.2 758.434 116.8 758.434 96C758.434 74.9333 763.368 57.3333 773.234 43.2C783.101 29.0667 796.034 18.4 812.034 11.2C828.301 3.73333 845.768 0 864.434 0C878.301 0 891.634 1.73333 904.434 5.2C917.501 8.39999 929.634 12.4 940.834 17.2C952.301 22 962.301 26.5333 970.834 30.8L937.234 95.2Z" fill="url(#paint0_linear)"/>
<g filter="url(#filter0_d)">
<path fill-rule="evenodd" clip-rule="evenodd" d="M292.762 152.4L249.6 287.4H329.2L345.97 231.9H345.4L357.4 179.9V179.4H357.706L364.834 152.4H292.762ZM402.295 152.4L409.2 179.8H408.498L421.253 231.8H421.6L438.8 287.4H518L475.028 152.4H402.295Z" fill="url(#paint1_linear)"/>
</g>
<g filter="url(#filter1_d)">
<path fill-rule="evenodd" clip-rule="evenodd" d="M644.257 65.9827L620.74 118.444L598.117 66.7859L532.956 95.5047L581.94 191.644V286.444H659.54V192.444L709.852 94.8992L644.257 65.9827Z" fill="url(#paint2_linear)"/>
</g>
<g filter="url(#filter2_d)">
<path fill-rule="evenodd" clip-rule="evenodd" d="M837.051 178.175C865.153 166.365 887.034 142.68 896.414 113.4C912.825 118.528 927.087 124.373 939.2 130.934C952 137.868 961.867 146.801 968.8 157.734C975.733 168.401 979.2 182.668 979.2 200.534C979.2 217.601 976.133 232.001 970 243.734C963.867 255.201 955.6 264.401 945.2 271.334C934.8 278.268 923.2 283.334 910.4 286.534C897.6 289.468 884.533 290.934 871.2 290.934C857.6 290.934 843.333 289.601 828.4 286.934C813.733 284.001 799.467 280.134 785.6 275.334C771.733 270.268 759.067 264.401 747.6 257.734L781.2 189.334L789.2 194.134C794.533 197.334 801.6 200.934 810.4 204.934C819.2 208.934 828.933 212.534 839.6 215.734C850.533 218.934 861.467 220.534 872.4 220.534C880.933 220.534 886.8 219.468 890 217.334C893.467 214.934 895.2 211.868 895.2 208.134C895.2 202.534 892.267 198.268 886.4 195.334C880.533 192.134 872.8 189.201 863.2 186.534C855.257 184.038 846.54 181.251 837.051 178.175Z" fill="url(#paint3_linear)"/>
</g>
<g filter="url(#filter3_d)">
<path fill-rule="evenodd" clip-rule="evenodd" d="M172.75 129.4C173.45 134.331 173.8 139.531 173.8 145C173.8 166.333 168.2 184.067 157 198.2C146.067 212.333 130.333 219.4 109.8 219.4H94.2001H78.6001H0.600098V287.4H109.8C138.6 287.4 163.667 281.533 185 269.8C206.6 258.067 223.267 241.533 235 220.2C247 198.867 253 173.8 253 145C253 139.701 252.775 134.501 252.326 129.4H172.75Z" fill="url(#paint4_linear)"/>
</g>
</g>
<defs>
<filter id="filter0_d" x="229.6" y="136.4" width="308.4" height="175" filterUnits="userSpaceOnUse" color-interpolation-filters="sRGB">
<feFlood flood-opacity="0" result="BackgroundImageFix"/>
<feColorMatrix in="SourceAlpha" type="matrix" values="0 0 0 0 0 0 0 0 0 0 0 0 0 0 0 0 0 0 127 0"/>
<feOffset dy="4"/>
<feGaussianBlur stdDeviation="10"/>
<feColorMatrix type="matrix" values="0 0 0 0 0 0 0 0 0 0 0 0 0 0 0 0 0 0 0.4 0"/>
<feBlend mode="normal" in2="BackgroundImageFix" result="effect1_dropShadow"/>
<feBlend mode="normal" in="SourceGraphic" in2="effect1_dropShadow" result="shape"/>
</filter>
<filter id="filter1_d" x="512.956" y="49.9827" width="216.896" height="260.461" filterUnits="userSpaceOnUse" color-interpolation-filters="sRGB">
<feFlood flood-opacity="0" result="BackgroundImageFix"/>
<feColorMatrix in="SourceAlpha" type="matrix" values="0 0 0 0 0 0 0 0 0 0 0 0 0 0 0 0 0 0 127 0"/>
<feOffset dy="4"/>
<feGaussianBlur stdDeviation="10"/>
<feColorMatrix type="matrix" values="0 0 0 0 0 0 0 0 0 0 0 0 0 0 0 0 0 0 0.4 0"/>
<feBlend mode="normal" in2="BackgroundImageFix" result="effect1_dropShadow"/>
<feBlend mode="normal" in="SourceGraphic" in2="effect1_dropShadow" result="shape"/>
</filter>
<filter id="filter2_d" x="727.6" y="97.4" width="271.6" height="217.534" filterUnits="userSpaceOnUse" color-interpolation-filters="sRGB">
<feFlood flood-opacity="0" result="BackgroundImageFix"/>
<feColorMatrix in="SourceAlpha" type="matrix" values="0 0 0 0 0 0 0 0 0 0 0 0 0 0 0 0 0 0 127 0"/>
<feOffset dy="4"/>
<feGaussianBlur stdDeviation="10"/>
<feColorMatrix type="matrix" values="0 0 0 0 0 0 0 0 0 0 0 0 0 0 0 0 0 0 0.4 0"/>
<feBlend mode="normal" in2="BackgroundImageFix" result="effect1_dropShadow"/>
<feBlend mode="normal" in="SourceGraphic" in2="effect1_dropShadow" result="shape"/>
</filter>
<filter id="filter3_d" x="-29.3999" y="103.4" width="312.4" height="218" filterUnits="userSpaceOnUse" color-interpolation-filters="sRGB">
<feFlood flood-opacity="0" result="BackgroundImageFix"/>
<feColorMatrix in="SourceAlpha" type="matrix" values="0 0 0 0 0 0 0 0 0 0 0 0 0 0 0 0 0 0 127 0"/>
<feOffset dy="4"/>
<feGaussianBlur stdDeviation="15"/>
<feColorMatrix type="matrix" values="0 0 0 0 0 0 0 0 0 0 0 0 0 0 0 0 0 0 0.4 0"/>
<feBlend mode="normal" in2="BackgroundImageFix" result="effect1_dropShadow"/>
<feBlend mode="normal" in="SourceGraphic" in2="effect1_dropShadow" result="shape"/>
</filter>
<linearGradient id="paint0_linear" x1="490.1" y1="-89.6" x2="490.1" y2="324.4" gradientUnits="userSpaceOnUse">
<stop stop-color="#68B0A7"/>
<stop offset="0.322917" stop-color="#508D8F"/>
<stop offset="0.65625" stop-color="#386A78"/>
<stop offset="0.916667" stop-color="#214861"/>
</linearGradient>
<linearGradient id="paint1_linear" x1="764.9" y1="-88.6" x2="764.9" y2="325.4" gradientUnits="userSpaceOnUse">
<stop stop-color="#68B0A7"/>
<stop offset="0.322917" stop-color="#508D8F"/>
<stop offset="0.65625" stop-color="#386A78"/>
<stop offset="0.916667" stop-color="#214861"/>
</linearGradient>
<linearGradient id="paint2_linear" x1="1003.35" y1="-90.2695" x2="1003.35" y2="324.516" gradientUnits="userSpaceOnUse">
<stop stop-color="#68B0A7"/>
<stop offset="0.322917" stop-color="#508D8F"/>
<stop offset="0.65625" stop-color="#386A78"/>
<stop offset="0.916667" stop-color="#214861"/>
</linearGradient>
<linearGradient id="paint3_linear" x1="1256.9" y1="-88.6658" x2="1256.9" y2="325.334" gradientUnits="userSpaceOnUse">
<stop stop-color="#68B0A7"/>
<stop offset="0.322917" stop-color="#508D8F"/>
<stop offset="0.65625" stop-color="#386A78"/>
<stop offset="0.916667" stop-color="#214861"/>
</linearGradient>
<linearGradient id="paint4_linear" x1="127.131" y1="-84.3462" x2="127.131" y2="321.088" gradientUnits="userSpaceOnUse">
<stop stop-color="#68B0A7"/>
<stop offset="0.322917" stop-color="#508D8F"/>
<stop offset="0.65625" stop-color="#386A78"/>
<stop offset="0.916667" stop-color="#214861"/>
</linearGradient>
<clipPath id="clip0">
<rect width="979" height="291" fill="white"/>
</clipPath>
</defs>
</svg>
