<svg width="979" height="443" viewBox="0 0 979 443" fill="none" xmlns="http://www.w3.org/2000/svg">
<g clip-path="url(#clip0)">
<path fill-rule="evenodd" clip-rule="evenodd" d="M0 286.4V218.4H78H93.6H109.2C129.733 218.4 145.467 211.333 156.4 197.2C167.6 183.067 173.2 165.333 173.2 144C173.2 121.867 167.467 104.133 156 90.8C144.8 77.2 129.2 70.4 109.2 70.4L93.6 70.4L78 70.4L0 70.4V2.39999H109.2C140.667 2.39999 166.933 8.79999 188 21.6C209.333 34.1333 225.333 51.2 236 72.8C246.933 94.1333 252.4 117.867 252.4 144C252.4 172.8 246.4 197.867 234.4 219.2C222.667 240.533 206 257.067 184.4 268.8C163.067 280.533 138 286.4 109.2 286.4H0ZM340.209 2.39999H427.409L517.809 286.4H438.609L421.595 231.4H421.6L408.698 178.8H409.009L383.809 78.8L357.409 178.8H357.6V178.9L345.6 230.9H345.779L329.009 286.4H249.409L340.209 2.39999ZM570.1 2.39999L620.9 118.4L672.9 2.39999H757.7L659.7 192.4V286.4H582.1V191.6L485.7 2.39999H570.1ZM937.234 95.2L930.434 91.2C925.901 88.5333 919.901 85.6 912.434 82.4C904.968 78.9333 896.834 75.8667 888.034 73.2C879.234 70.5333 870.568 69.2 862.034 69.2C855.368 69.2 849.901 70.2667 845.634 72.4C841.368 74.5333 839.234 78.1333 839.234 83.2C839.234 90.6667 843.901 96 853.234 99.2C862.834 102.133 875.768 106.267 892.034 111.6C909.634 116.933 924.834 123.067 937.634 130C950.434 136.933 960.301 145.867 967.234 156.8C974.168 167.467 977.634 181.733 977.634 199.6C977.634 216.667 974.568 231.067 968.434 242.8C962.301 254.267 954.034 263.467 943.634 270.4C933.234 277.333 921.634 282.4 908.834 285.6C896.034 288.533 882.968 290 869.634 290C856.034 290 841.768 288.667 826.834 286C812.168 283.067 797.901 279.2 784.034 274.4C770.168 269.333 757.501 263.467 746.034 256.8L779.634 188.4L787.634 193.2C792.968 196.4 800.034 200 808.834 204C817.634 208 827.368 211.6 838.034 214.8C848.968 218 859.901 219.6 870.834 219.6C879.368 219.6 885.234 218.533 888.434 216.4C891.901 214 893.634 210.933 893.634 207.2C893.634 201.6 890.701 197.333 884.834 194.4C878.968 191.2 871.234 188.267 861.634 185.6C852.301 182.667 841.901 179.333 830.434 175.6C805.368 167.067 787.101 156.933 775.634 145.2C764.168 133.2 758.434 116.8 758.434 96C758.434 74.9333 763.368 57.3333 773.234 43.2C783.101 29.0667 796.034 18.4 812.034 11.2C828.301 3.73333 845.768 0 864.434 0C878.301 0 891.634 1.73333 904.434 5.2C917.501 8.39999 929.634 12.4 940.834 17.2C952.301 22 962.301 26.5333 970.834 30.8L937.234 95.2Z" fill="url(#paint0_linear)"/>
<g filter="url(#filter0_d)">
<path fill-rule="evenodd" clip-rule="evenodd" d="M292.762 152.4L249.6 287.4H329.2L345.97 231.9H345.4L357.4 179.9V179.4H357.706L364.834 152.4H292.762ZM402.295 152.4L409.2 179.8H408.498L421.253 231.8H421.6L438.8 287.4H518L475.028 152.4H402.295Z" fill="url(#paint1_linear)"/>
</g>
<g filter="url(#filter1_d)">
<path fill-rule="evenodd" clip-rule="evenodd" d="M644.257 65.9826L620.74 118.444L598.117 66.7859L532.956 95.5046L581.94 191.644V286.444H659.54V192.444L709.852 94.8992L644.257 65.9826Z" fill="url(#paint2_linear)"/>
</g>
<g filter="url(#filter2_d)">
<path fill-rule="evenodd" clip-rule="evenodd" d="M837.051 178.175C865.153 166.365 887.034 142.68 896.414 113.4C912.825 118.528 927.087 124.373 939.2 130.934C952 137.868 961.867 146.801 968.8 157.734C975.733 168.401 979.2 182.668 979.2 200.534C979.2 217.601 976.133 232.001 970 243.734C963.867 255.201 955.6 264.401 945.2 271.334C934.8 278.268 923.2 283.334 910.4 286.534C897.6 289.468 884.533 290.934 871.2 290.934C857.6 290.934 843.333 289.601 828.4 286.934C813.733 284.001 799.467 280.134 785.6 275.334C771.733 270.268 759.067 264.401 747.6 257.734L781.2 189.334L789.2 194.134C794.533 197.334 801.6 200.934 810.4 204.934C819.2 208.934 828.933 212.534 839.6 215.734C850.533 218.934 861.467 220.534 872.4 220.534C880.933 220.534 886.8 219.468 890 217.334C893.467 214.934 895.2 211.868 895.2 208.134C895.2 202.534 892.267 198.268 886.4 195.334C880.533 192.134 872.8 189.201 863.2 186.534C855.257 184.038 846.54 181.251 837.051 178.175Z" fill="url(#paint3_linear)"/>
</g>
<g filter="url(#filter3_d)">
<path fill-rule="evenodd" clip-rule="evenodd" d="M172.75 129.4C173.45 134.331 173.8 139.531 173.8 145C173.8 166.333 168.2 184.067 157 198.2C146.067 212.333 130.333 219.4 109.8 219.4H94.2001H78.6001H0.600098V287.4H109.8C138.6 287.4 163.667 281.533 185 269.8C206.6 258.067 223.267 241.533 235 220.2C247 198.867 253 173.8 253 145C253 139.701 252.775 134.501 252.326 129.4H172.75Z" fill="url(#paint4_linear)"/>
</g>
<path d="M212.608 380.504C213.472 382.088 214.456 384.056 215.56 386.408C216.712 388.712 217.888 391.232 219.088 393.968C220.336 396.656 221.56 399.416 222.76 402.248C223.96 405.08 225.088 407.744 226.144 410.24C227.2 407.744 228.328 405.08 229.528 402.248C230.728 399.416 231.928 396.656 233.128 393.968C234.376 391.232 235.552 388.712 236.656 386.408C237.808 384.056 238.816 382.088 239.68 380.504H249.904C250.384 383.816 250.816 387.536 251.2 391.664C251.632 395.744 251.992 400.016 252.28 404.48C252.616 408.896 252.904 413.336 253.144 417.8C253.432 422.264 253.672 426.464 253.864 430.4H242.92C242.776 425.552 242.584 420.272 242.344 414.56C242.104 408.848 241.744 403.088 241.264 397.28C240.4 399.296 239.44 401.528 238.384 403.976C237.328 406.424 236.272 408.872 235.216 411.32C234.208 413.768 233.224 416.12 232.264 418.376C231.304 420.584 230.488 422.48 229.816 424.064H221.968C221.296 422.48 220.48 420.584 219.52 418.376C218.56 416.12 217.552 413.768 216.496 411.32C215.488 408.872 214.456 406.424 213.4 403.976C212.344 401.528 211.384 399.296 210.52 397.28C210.04 403.088 209.68 408.848 209.44 414.56C209.2 420.272 209.008 425.552 208.864 430.4H197.92C198.112 426.464 198.328 422.264 198.568 417.8C198.856 413.336 199.144 408.896 199.432 404.48C199.768 400.016 200.128 395.744 200.512 391.664C200.944 387.536 201.4 383.816 201.88 380.504H212.608ZM284.929 422.912C285.985 422.912 286.993 422.888 287.953 422.84C288.913 422.792 289.681 422.72 290.257 422.624V414.488C289.825 414.392 289.177 414.296 288.313 414.2C287.449 414.104 286.657 414.056 285.937 414.056C284.929 414.056 283.969 414.128 283.057 414.272C282.193 414.368 281.425 414.584 280.753 414.92C280.081 415.256 279.553 415.712 279.169 416.288C278.785 416.864 278.593 417.584 278.593 418.448C278.593 420.128 279.145 421.304 280.249 421.976C281.401 422.6 282.961 422.912 284.929 422.912ZM284.065 391.52C287.233 391.52 289.873 391.88 291.985 392.6C294.097 393.32 295.777 394.352 297.025 395.696C298.321 397.04 299.233 398.672 299.761 400.592C300.289 402.512 300.553 404.648 300.553 407V429.32C299.017 429.656 296.881 430.04 294.145 430.472C291.409 430.952 288.097 431.192 284.209 431.192C281.761 431.192 279.529 430.976 277.513 430.544C275.545 430.112 273.841 429.416 272.401 428.456C270.961 427.448 269.857 426.152 269.089 424.568C268.321 422.984 267.937 421.04 267.937 418.736C267.937 416.528 268.369 414.656 269.233 413.12C270.145 411.584 271.345 410.36 272.833 409.448C274.321 408.536 276.025 407.888 277.945 407.504C279.865 407.072 281.857 406.856 283.921 406.856C285.313 406.856 286.537 406.928 287.593 407.072C288.697 407.168 289.585 407.312 290.257 407.504V406.496C290.257 404.672 289.705 403.208 288.601 402.104C287.497 401 285.577 400.448 282.841 400.448C281.017 400.448 279.217 400.592 277.441 400.88C275.665 401.12 274.129 401.48 272.833 401.96L271.465 393.32C272.089 393.128 272.857 392.936 273.769 392.744C274.729 392.504 275.761 392.312 276.865 392.168C277.969 391.976 279.121 391.832 280.321 391.736C281.569 391.592 282.817 391.52 284.065 391.52ZM328.182 406.208C329.238 405.056 330.318 403.856 331.422 402.608C332.574 401.36 333.678 400.136 334.734 398.936C335.79 397.688 336.774 396.512 337.686 395.408C338.646 394.304 339.462 393.344 340.134 392.528H352.878C350.334 395.456 347.838 398.264 345.39 400.952C342.99 403.592 340.35 406.328 337.47 409.16C338.91 410.456 340.398 412.016 341.934 413.84C343.47 415.616 344.958 417.464 346.398 419.384C347.838 421.304 349.158 423.224 350.358 425.144C351.558 427.064 352.566 428.816 353.382 430.4H341.07C340.302 429.152 339.414 427.784 338.406 426.296C337.446 424.76 336.414 423.248 335.31 421.76C334.206 420.224 333.03 418.76 331.782 417.368C330.582 415.976 329.382 414.8 328.182 413.84V430.4H317.454V376.256L328.182 374.528V406.208ZM361.948 411.752C361.948 408.392 362.452 405.464 363.46 402.968C364.516 400.424 365.884 398.312 367.564 396.632C369.244 394.952 371.164 393.68 373.324 392.816C375.532 391.952 377.788 391.52 380.092 391.52C385.468 391.52 389.716 393.176 392.836 396.488C395.956 399.752 397.516 404.576 397.516 410.96C397.516 411.584 397.492 412.28 397.444 413.048C397.396 413.768 397.348 414.416 397.3 414.992H372.964C373.204 417.2 374.236 418.952 376.06 420.248C377.884 421.544 380.332 422.192 383.404 422.192C385.372 422.192 387.292 422.024 389.164 421.688C391.084 421.304 392.644 420.848 393.844 420.32L395.284 429.032C394.708 429.32 393.94 429.608 392.98 429.896C392.02 430.184 390.94 430.424 389.74 430.616C388.588 430.856 387.34 431.048 385.996 431.192C384.652 431.336 383.308 431.408 381.964 431.408C378.556 431.408 375.58 430.904 373.036 429.896C370.54 428.888 368.452 427.52 366.772 425.792C365.14 424.016 363.916 421.928 363.1 419.528C362.332 417.128 361.948 414.536 361.948 411.752ZM387.148 407.648C387.1 406.736 386.932 405.848 386.644 404.984C386.404 404.12 385.996 403.352 385.42 402.68C384.892 402.008 384.196 401.456 383.332 401.024C382.516 400.592 381.484 400.376 380.236 400.376C379.036 400.376 378.004 400.592 377.14 401.024C376.276 401.408 375.556 401.936 374.98 402.608C374.404 403.28 373.948 404.072 373.612 404.984C373.324 405.848 373.108 406.736 372.964 407.648H387.148ZM448.22 430.4H437.492V392.528H448.22V430.4ZM449.228 381.584C449.228 383.552 448.58 385.112 447.284 386.264C446.036 387.368 444.548 387.92 442.82 387.92C441.092 387.92 439.58 387.368 438.284 386.264C437.036 385.112 436.412 383.552 436.412 381.584C436.412 379.616 437.036 378.08 438.284 376.976C439.58 375.824 441.092 375.248 442.82 375.248C444.548 375.248 446.036 375.824 447.284 376.976C448.58 378.08 449.228 379.616 449.228 381.584ZM465.144 383.096L475.872 381.368V392.528H488.76V401.456H475.872V414.776C475.872 417.032 476.256 418.832 477.024 420.176C477.84 421.52 479.448 422.192 481.848 422.192C483 422.192 484.176 422.096 485.376 421.904C486.624 421.664 487.752 421.352 488.76 420.968L490.272 429.32C488.976 429.848 487.536 430.304 485.952 430.688C484.368 431.072 482.424 431.264 480.12 431.264C477.192 431.264 474.768 430.88 472.848 430.112C470.928 429.296 469.392 428.192 468.24 426.8C467.088 425.36 466.272 423.632 465.792 421.616C465.36 419.6 465.144 417.368 465.144 414.92V383.096ZM553.457 411.176C553.457 404.264 550.913 400.808 545.825 400.808C544.721 400.808 543.617 400.952 542.513 401.24C541.457 401.528 540.593 401.888 539.921 402.32V421.832C540.449 421.928 541.121 422.024 541.937 422.12C542.753 422.168 543.641 422.192 544.601 422.192C547.529 422.192 549.737 421.184 551.225 419.168C552.713 417.152 553.457 414.488 553.457 411.176ZM564.401 411.464C564.401 414.488 563.945 417.224 563.033 419.672C562.169 422.12 560.897 424.208 559.217 425.936C557.537 427.664 555.473 429.008 553.025 429.968C550.577 430.88 547.793 431.336 544.673 431.336C543.377 431.336 542.009 431.264 540.569 431.12C539.177 431.024 537.785 430.88 536.393 430.688C535.049 430.496 533.753 430.28 532.505 430.04C531.257 429.752 530.153 429.464 529.193 429.176V376.256L539.921 374.528V393.392C541.121 392.864 542.369 392.456 543.665 392.168C544.961 391.88 546.353 391.736 547.841 391.736C550.529 391.736 552.905 392.216 554.969 393.176C557.033 394.088 558.761 395.408 560.153 397.136C561.545 398.864 562.601 400.952 563.321 403.4C564.041 405.8 564.401 408.488 564.401 411.464ZM578.046 411.752C578.046 408.392 578.55 405.464 579.558 402.968C580.614 400.424 581.982 398.312 583.662 396.632C585.342 394.952 587.262 393.68 589.422 392.816C591.63 391.952 593.886 391.52 596.19 391.52C601.566 391.52 605.814 393.176 608.934 396.488C612.054 399.752 613.614 404.576 613.614 410.96C613.614 411.584 613.59 412.28 613.542 413.048C613.494 413.768 613.446 414.416 613.398 414.992H589.062C589.302 417.2 590.334 418.952 592.158 420.248C593.982 421.544 596.43 422.192 599.502 422.192C601.47 422.192 603.39 422.024 605.262 421.688C607.182 421.304 608.742 420.848 609.942 420.32L611.382 429.032C610.806 429.32 610.038 429.608 609.078 429.896C608.118 430.184 607.038 430.424 605.838 430.616C604.686 430.856 603.438 431.048 602.094 431.192C600.75 431.336 599.406 431.408 598.062 431.408C594.654 431.408 591.678 430.904 589.134 429.896C586.638 428.888 584.55 427.52 582.87 425.792C581.238 424.016 580.014 421.928 579.198 419.528C578.43 417.128 578.046 414.536 578.046 411.752ZM603.246 407.648C603.198 406.736 603.03 405.848 602.742 404.984C602.502 404.12 602.094 403.352 601.518 402.68C600.99 402.008 600.294 401.456 599.43 401.024C598.614 400.592 597.582 400.376 596.334 400.376C595.134 400.376 594.102 400.592 593.238 401.024C592.374 401.408 591.654 401.936 591.078 402.608C590.502 403.28 590.046 404.072 589.71 404.984C589.422 405.848 589.206 406.736 589.062 407.648H603.246ZM628.733 383.096L639.461 381.368V392.528H652.349V401.456H639.461V414.776C639.461 417.032 639.845 418.832 640.613 420.176C641.429 421.52 643.037 422.192 645.437 422.192C646.589 422.192 647.765 422.096 648.965 421.904C650.213 421.664 651.341 421.352 652.349 420.968L653.861 429.32C652.565 429.848 651.125 430.304 649.541 430.688C647.957 431.072 646.013 431.264 643.709 431.264C640.781 431.264 638.357 430.88 636.437 430.112C634.517 429.296 632.981 428.192 631.829 426.8C630.677 425.36 629.861 423.632 629.381 421.616C628.949 419.6 628.733 417.368 628.733 414.92V383.096ZM667.925 383.096L678.653 381.368V392.528H691.541V401.456H678.653V414.776C678.653 417.032 679.037 418.832 679.805 420.176C680.621 421.52 682.229 422.192 684.629 422.192C685.781 422.192 686.957 422.096 688.157 421.904C689.405 421.664 690.533 421.352 691.541 420.968L693.053 429.32C691.757 429.848 690.317 430.304 688.733 430.688C687.149 431.072 685.205 431.264 682.901 431.264C679.973 431.264 677.549 430.88 675.629 430.112C673.709 429.296 672.173 428.192 671.021 426.8C669.869 425.36 669.053 423.632 668.573 421.616C668.141 419.6 667.925 417.368 667.925 414.92V383.096ZM704.271 411.752C704.271 408.392 704.775 405.464 705.783 402.968C706.839 400.424 708.207 398.312 709.887 396.632C711.567 394.952 713.487 393.68 715.647 392.816C717.855 391.952 720.111 391.52 722.415 391.52C727.791 391.52 732.039 393.176 735.159 396.488C738.279 399.752 739.839 404.576 739.839 410.96C739.839 411.584 739.815 412.28 739.767 413.048C739.719 413.768 739.671 414.416 739.623 414.992H715.287C715.527 417.2 716.559 418.952 718.383 420.248C720.207 421.544 722.655 422.192 725.727 422.192C727.695 422.192 729.615 422.024 731.487 421.688C733.407 421.304 734.967 420.848 736.167 420.32L737.607 429.032C737.031 429.32 736.263 429.608 735.303 429.896C734.343 430.184 733.263 430.424 732.063 430.616C730.911 430.856 729.663 431.048 728.319 431.192C726.975 431.336 725.631 431.408 724.287 431.408C720.879 431.408 717.903 430.904 715.359 429.896C712.863 428.888 710.775 427.52 709.095 425.792C707.463 424.016 706.239 421.928 705.423 419.528C704.655 417.128 704.271 414.536 704.271 411.752ZM729.471 407.648C729.423 406.736 729.255 405.848 728.967 404.984C728.727 404.12 728.319 403.352 727.743 402.68C727.215 402.008 726.519 401.456 725.655 401.024C724.839 400.592 723.807 400.376 722.559 400.376C721.359 400.376 720.327 400.592 719.463 401.024C718.599 401.408 717.879 401.936 717.303 402.608C716.727 403.28 716.271 404.072 715.935 404.984C715.647 405.848 715.431 406.736 715.287 407.648H729.471ZM778.142 402.032C777.182 401.792 776.054 401.552 774.758 401.312C773.462 401.024 772.07 400.88 770.582 400.88C769.91 400.88 769.094 400.952 768.134 401.096C767.222 401.192 766.526 401.312 766.046 401.456V430.4H755.318V394.544C757.238 393.872 759.494 393.248 762.086 392.672C764.726 392.048 767.654 391.736 770.87 391.736C771.446 391.736 772.142 391.784 772.958 391.88C773.774 391.928 774.59 392.024 775.406 392.168C776.222 392.264 777.038 392.408 777.854 392.6C778.67 392.744 779.366 392.936 779.942 393.176L778.142 402.032Z" fill="#508D8F"/>
</g>
<defs>
<filter id="filter0_d" x="229.6" y="136.4" width="308.4" height="175" filterUnits="userSpaceOnUse" color-interpolation-filters="sRGB">
<feFlood flood-opacity="0" result="BackgroundImageFix"/>
<feColorMatrix in="SourceAlpha" type="matrix" values="0 0 0 0 0 0 0 0 0 0 0 0 0 0 0 0 0 0 127 0"/>
<feOffset dy="4"/>
<feGaussianBlur stdDeviation="10"/>
<feColorMatrix type="matrix" values="0 0 0 0 0 0 0 0 0 0 0 0 0 0 0 0 0 0 0.4 0"/>
<feBlend mode="normal" in2="BackgroundImageFix" result="effect1_dropShadow"/>
<feBlend mode="normal" in="SourceGraphic" in2="effect1_dropShadow" result="shape"/>
</filter>
<filter id="filter1_d" x="512.956" y="49.9826" width="216.896" height="260.461" filterUnits="userSpaceOnUse" color-interpolation-filters="sRGB">
<feFlood flood-opacity="0" result="BackgroundImageFix"/>
<feColorMatrix in="SourceAlpha" type="matrix" values="0 0 0 0 0 0 0 0 0 0 0 0 0 0 0 0 0 0 127 0"/>
<feOffset dy="4"/>
<feGaussianBlur stdDeviation="10"/>
<feColorMatrix type="matrix" values="0 0 0 0 0 0 0 0 0 0 0 0 0 0 0 0 0 0 0.4 0"/>
<feBlend mode="normal" in2="BackgroundImageFix" result="effect1_dropShadow"/>
<feBlend mode="normal" in="SourceGraphic" in2="effect1_dropShadow" result="shape"/>
</filter>
<filter id="filter2_d" x="727.6" y="97.4" width="271.6" height="217.534" filterUnits="userSpaceOnUse" color-interpolation-filters="sRGB">
<feFlood flood-opacity="0" result="BackgroundImageFix"/>
<feColorMatrix in="SourceAlpha" type="matrix" values="0 0 0 0 0 0 0 0 0 0 0 0 0 0 0 0 0 0 127 0"/>
<feOffset dy="4"/>
<feGaussianBlur stdDeviation="10"/>
<feColorMatrix type="matrix" values="0 0 0 0 0 0 0 0 0 0 0 0 0 0 0 0 0 0 0.4 0"/>
<feBlend mode="normal" in2="BackgroundImageFix" result="effect1_dropShadow"/>
<feBlend mode="normal" in="SourceGraphic" in2="effect1_dropShadow" result="shape"/>
</filter>
<filter id="filter3_d" x="-29.3999" y="103.4" width="312.4" height="218" filterUnits="userSpaceOnUse" color-interpolation-filters="sRGB">
<feFlood flood-opacity="0" result="BackgroundImageFix"/>
<feColorMatrix in="SourceAlpha" type="matrix" values="0 0 0 0 0 0 0 0 0 0 0 0 0 0 0 0 0 0 127 0"/>
<feOffset dy="4"/>
<feGaussianBlur stdDeviation="15"/>
<feColorMatrix type="matrix" values="0 0 0 0 0 0 0 0 0 0 0 0 0 0 0 0 0 0 0.4 0"/>
<feBlend mode="normal" in2="BackgroundImageFix" result="effect1_dropShadow"/>
<feBlend mode="normal" in="SourceGraphic" in2="effect1_dropShadow" result="shape"/>
</filter>
<linearGradient id="paint0_linear" x1="490.1" y1="-89.6" x2="490.1" y2="324.4" gradientUnits="userSpaceOnUse">
<stop stop-color="#68B0A7"/>
<stop offset="0.322917" stop-color="#508D8F"/>
<stop offset="0.65625" stop-color="#386A78"/>
<stop offset="0.916667" stop-color="#214861"/>
</linearGradient>
<linearGradient id="paint1_linear" x1="764.9" y1="-88.6" x2="764.9" y2="325.4" gradientUnits="userSpaceOnUse">
<stop stop-color="#68B0A7"/>
<stop offset="0.322917" stop-color="#508D8F"/>
<stop offset="0.65625" stop-color="#386A78"/>
<stop offset="0.916667" stop-color="#214861"/>
</linearGradient>
<linearGradient id="paint2_linear" x1="1003.35" y1="-90.2696" x2="1003.35" y2="324.516" gradientUnits="userSpaceOnUse">
<stop stop-color="#68B0A7"/>
<stop offset="0.322917" stop-color="#508D8F"/>
<stop offset="0.65625" stop-color="#386A78"/>
<stop offset="0.916667" stop-color="#214861"/>
</linearGradient>
<linearGradient id="paint3_linear" x1="1256.9" y1="-88.6658" x2="1256.9" y2="325.334" gradientUnits="userSpaceOnUse">
<stop stop-color="#68B0A7"/>
<stop offset="0.322917" stop-color="#508D8F"/>
<stop offset="0.65625" stop-color="#386A78"/>
<stop offset="0.916667" stop-color="#214861"/>
</linearGradient>
<linearGradient id="paint4_linear" x1="127.131" y1="-84.3462" x2="127.131" y2="321.088" gradientUnits="userSpaceOnUse">
<stop stop-color="#68B0A7"/>
<stop offset="0.322917" stop-color="#508D8F"/>
<stop offset="0.65625" stop-color="#386A78"/>
<stop offset="0.916667" stop-color="#214861"/>
</linearGradient>
<clipPath id="clip0">
<rect width="979" height="443" fill="white"/>
</clipPath>
</defs>
</svg>
