<svg width="282" height="301" viewBox="0 0 282 301" fill="none" xmlns="http://www.w3.org/2000/svg">
<g clip-path="url(#clip0)">
<path fill-rule="evenodd" clip-rule="evenodd" d="M0 284V216H78H93.6H109.2C129.733 216 145.467 208.933 156.4 194.8C167.6 180.667 173.2 162.933 173.2 141.6C173.2 119.467 167.467 101.733 156 88.4C144.8 74.8 129.2 68 109.2 68L93.6 68L78 68L0 68V0H109.2C140.667 0 166.933 6.4 188 19.2C209.333 31.7333 225.333 48.8 236 70.4C246.933 91.7333 252.4 115.467 252.4 141.6C252.4 170.4 246.4 195.467 234.4 216.8C222.667 238.133 206 254.667 184.4 266.4C163.067 278.133 138 284 109.2 284H0Z" fill="url(#paint0_linear)"/>
<g filter="url(#filter0_d)">
<path fill-rule="evenodd" clip-rule="evenodd" d="M172.75 127C173.45 131.931 173.8 137.131 173.8 142.6C173.8 163.933 168.2 181.667 157 195.8C146.067 209.933 130.333 217 109.8 217H94.2001H78.6001H0.600098V285H109.8C138.6 285 163.667 279.133 185 267.4C206.6 255.667 223.267 239.133 235 217.8C247 196.467 253 171.4 253 142.6C253 137.301 252.775 132.101 252.326 127H172.75Z" fill="url(#paint1_linear)"/>
</g>
</g>
<defs>
<filter id="filter0_d" x="-29.3999" y="101" width="312.4" height="218" filterUnits="userSpaceOnUse" color-interpolation-filters="sRGB">
<feFlood flood-opacity="0" result="BackgroundImageFix"/>
<feColorMatrix in="SourceAlpha" type="matrix" values="0 0 0 0 0 0 0 0 0 0 0 0 0 0 0 0 0 0 127 0"/>
<feOffset dy="4"/>
<feGaussianBlur stdDeviation="15"/>
<feColorMatrix type="matrix" values="0 0 0 0 0 0 0 0 0 0 0 0 0 0 0 0 0 0 0.4 0"/>
<feBlend mode="normal" in2="BackgroundImageFix" result="effect1_dropShadow"/>
<feBlend mode="normal" in="SourceGraphic" in2="effect1_dropShadow" result="shape"/>
</filter>
<linearGradient id="paint0_linear" x1="126.531" y1="-87.7462" x2="126.531" y2="317.688" gradientUnits="userSpaceOnUse">
<stop stop-color="#68B0A7"/>
<stop offset="0.322917" stop-color="#508D8F"/>
<stop offset="0.65625" stop-color="#386A78"/>
<stop offset="0.916667" stop-color="#214861"/>
</linearGradient>
<linearGradient id="paint1_linear" x1="127.131" y1="-86.7462" x2="127.131" y2="318.688" gradientUnits="userSpaceOnUse">
<stop stop-color="#68B0A7"/>
<stop offset="0.322917" stop-color="#508D8F"/>
<stop offset="0.65625" stop-color="#386A78"/>
<stop offset="0.916667" stop-color="#214861"/>
</linearGradient>
<clipPath id="clip0">
<rect width="282" height="301" fill="white"/>
</clipPath>
</defs>
</svg>
